<svg id="Capa_1" enable-background="new 0 0 512.002 512.002" height="512" viewBox="0 0 512.002 512.002" width="512" xmlns="http://www.w3.org/2000/svg"><g><path d="m256.118 481.783c49.312 0 98.797-16.125 140.018-48.854 7.675-6.095 8.278-17.542 1.364-24.458l-39.057-39.056s-173.583-173.583-173.583-173.584c-.004-.004-.008-.007-.012-.011l-81.318-81.318c-6.928-6.929-18.376-6.297-24.458 1.363-71.251 89.738-63.797 218.593 17.337 299.727 43.866 43.866 101.669 66.191 159.709 66.191zm89.521-103.959v9.076c0 8.547-6.953 15.5-15.5 15.5h-148.276c-8.573 0-15.5-7.006-15.5-15.5v-107.259c2.519.521 5.095.788 7.687.788 10.325 0 20.186-4.218 27.316-11.628 7.132 7.411 16.992 11.628 27.317 11.628 5.589 0 11.028-1.213 16.014-3.546zm-112.791-112.79c-1.365.251-2.755.395-4.165.395-6.582 0-12.854-2.838-17.206-7.788-2.563-2.915-6.249-4.586-10.111-4.586-3.861 0-7.547 1.672-10.11 4.586-4.353 4.949-10.624 7.788-17.206 7.788-2.631 0-5.231-.461-7.687-1.336v-7.958c0-15.488 4.892-30.73 13.904-43.682zm-142.028-139.841c.515-.649 1.507-.681 2.103-.084l76.61 76.61c-11.75 15.907-18.169 34.976-18.169 54.416v130.766.003c0 16.76 13.635 30.497 30.5 30.497h148.275c14.963 0 27.436-10.835 30.006-25.07l26.748 26.748c.603.603.561 1.592-.085 2.104-83.767 66.509-204.05 59.544-279.791-16.197-75.744-75.743-82.706-196.028-16.197-279.793z"/><path d="m408.471 397.5c6.925 6.924 18.373 6.3 24.458-1.364 27.84-35.062 44.45-77.262 48.036-122.037.33-4.129-2.749-7.744-6.878-8.075-4.149-.326-7.744 2.75-8.074 6.877-3.347 41.796-18.85 81.184-44.832 113.906-.51.643-1.497.691-2.103.085l-58.439-58.439v-59.588-12.731c0-28.02-12.988-54.463-35.634-72.55-10.553-8.429-16.392-22.709-17.431-42.464 9.875-2.872 17.116-11.997 17.116-22.787 0-13.086-10.646-23.732-23.732-23.732h-27.456c-4.143 0-7.5 3.358-7.5 7.5s3.357 7.5 7.5 7.5h27.456c4.815 0 8.732 3.917 8.732 8.732s-3.917 8.733-8.732 8.733c-7.256 0-69.365 0-89.913 0-4.815 0-8.732-3.917-8.732-8.733 0-4.815 3.917-8.732 8.732-8.732h27.457c4.143 0 7.5-3.358 7.5-7.5s-3.357-7.5-7.5-7.5h-27.457c-13.086 0-23.732 10.646-23.732 23.732 0 10.795 7.247 19.923 17.129 22.791-.531 10.003-2.312 18.636-5.318 25.812l-74.014-74.014c-.602-.602-.562-1.591.085-2.104 132.51-105.213 327.521-18.067 340.813 148.281.331 4.128 3.932 7.206 8.074 6.878 4.129-.33 7.208-3.944 6.879-8.074-14.27-178.559-223.356-271.37-365.096-158.83-7.661 6.082-8.293 17.528-1.364 24.457zm-62.832-84.046-40.171-40.171c1.848-1.332 3.578-2.832 5.167-4.482 7.132 7.411 16.992 11.628 27.317 11.628 2.591 0 5.167-.266 7.687-.788zm-126.226-171.387h73.173c1.3 24.155 9.04 42.042 23.058 53.239 19.063 15.225 29.995 37.396 29.995 60.829v7.958c-2.456.874-5.056 1.336-7.687 1.336-6.582 0-12.854-2.838-17.206-7.788-2.563-2.915-6.249-4.586-10.111-4.586-3.861 0-7.547 1.672-10.11 4.586-1.693 1.926-3.691 3.545-5.898 4.801l-84.25-84.251c5.233-9.837 8.261-21.938 9.036-36.124z"/><path d="m256.001 512.002c141.492 0 256.001-114.497 256.001-256.001 0-141.492-114.497-256.001-256.001-256.001-141.492 0-256.001 114.497-256.001 256.001 0 141.492 114.497 256.001 256.001 256.001zm0-497.002c132.889 0 241.001 108.113 241.001 241.001s-108.112 241.001-241.001 241.001-241.001-108.113-241.001-241.001 108.112-241.001 241.001-241.001z"/></g></svg>