<svg height="512" viewBox="0 0 512 512" width="512" xmlns="http://www.w3.org/2000/svg"><g id="Outline"><path d="m464 392v-241.781a32.089 32.089 0 0 0 -4.027-15.541l-35.973-64.751v-37.927a16.019 16.019 0 0 0 -16-16h-304a16.019 16.019 0 0 0 -16 16v37.927l-35.974 64.752a32.092 32.092 0 0 0 -4.026 15.54v17.781h16v-17.781a16.041 16.041 0 0 1 2.013-7.77l34.694-62.449h301.693l-30.378 54.679a32.092 32.092 0 0 0 -4.022 15.54v130.408l-32.977-60.458c-3.023-6.169-11.961-2.685-11.961-2.685a47.665 47.665 0 0 0 -27.182 41.016l-53.548 20.081s-19.582-23.581-46.991-15.569c-3.809 1.113-12.091 3.988-9.841 14.738l67.4 202.25h-23.356l-22.053-58.809a8 8 0 0 0 -7.491-5.191h-8a32.059 32.059 0 0 0 -24.813-31.187 32.113 32.113 0 0 0 -23.994-24 32.015 32.015 0 0 0 -62.385-.006 31.879 31.879 0 0 0 -15.441 8.57c-.475.476-.926.969-1.367 1.469v-186.846h-16v280a32.036 32.036 0 0 0 32 32h352a32.036 32.036 0 0 0 32-32v-56h-16v16h-32v-48h32v16zm-400 8a8 8 0 0 0 8-8 16 16 0 0 1 16-16 8 8 0 0 0 8-8 16 16 0 0 1 32 0 8 8 0 0 0 8 8 16.019 16.019 0 0 1 16 16 8 8 0 0 0 8 8 16.019 16.019 0 0 1 16 16h-112zm16 80a16.019 16.019 0 0 1 -16-16v-32h130.456l18 48zm288 0h-98.234l-67.335-202.007a31.451 31.451 0 0 1 27.174 10.354c3.473 3.907 7.123 9.423 13.2 7.144l64-24a8 8 0 0 0 5.158-8.216 31.6 31.6 0 0 1 12.886-28.339l43.151 79.104zm-264-416v-32h304v32zm304 296a8 8 0 0 0 -8 8v64a8 8 0 0 0 8 8h40v24a16.019 16.019 0 0 1 -16 16h-48v-329.781a16.041 16.041 0 0 1 2.013-7.77l29.987-53.976 29.986 53.975a16.037 16.037 0 0 1 2.014 7.771v81.781h-48v16h48v16h-48v16h48v16h-48v16h48v16h-48v16h48v16z"/><path d="m209.875 208.025a182.592 182.592 0 0 0 35.856-3.573 12.809 12.809 0 0 0 10.269-12.526v-60.086c-.25-5.84-6.75-9.34-13.407-7.077a165.649 165.649 0 0 1 -68.858-.733 181.592 181.592 0 0 0 -75.466-.8 12.808 12.808 0 0 0 -10.269 12.524v60.086c.5 8.16 9.25 8.41 13.407 7.077a165.7 165.7 0 0 1 68.858.732 182.278 182.278 0 0 0 39.61 4.376zm-75.75-24.37a182.086 182.086 0 0 0 -30.125 2.519v-47.755a165.626 165.626 0 0 1 66.265 1.23 181.44 181.44 0 0 0 69.735 1.856v47.756a165.608 165.608 0 0 1 -66.265-1.231 182.325 182.325 0 0 0 -39.61-4.375z"/><circle cx="260" cy="340" r="12"/><circle cx="324" cy="316" r="12"/><path d="m327.744 361.729a11.754 11.754 0 0 1 -13.735-4.4 11.99 11.99 0 0 0 -2.878-19.862c-5.671-2.639-11.334.394-16.693 2.349a12.015 12.015 0 0 0 -7.159 15.386 12.2 12.2 0 0 0 10.983 7.878 11.771 11.771 0 0 1 -19.8 9.7l-4.117-3.892-10.991 11.627 4.117 3.892a28.089 28.089 0 0 0 28.6 5.909 27.594 27.594 0 0 0 15.663-14.375c.029-.062.058-.125.086-.187a27.76 27.76 0 0 0 39.486-21.936l.643-5.629-15.9-1.817-.644 5.63a11.714 11.714 0 0 1 -7.661 9.727z"/><path d="m88 224h16v16h-16z"/><path d="m120 224h48v16h-48z"/><path d="m88 256h16v16h-16z"/><path d="m120 256h48v16h-48z"/><path d="m88 288h16v16h-16z"/><path d="m120 288h48v16h-48z"/></g></svg>