<svg height="480pt" viewBox="0 0 480 480.52427" width="480pt" xmlns="http://www.w3.org/2000/svg"><path d="m456.21875 368h-15.121094l23.121094-231.441406c.210938-2.253906-.546875-4.492188-2.082031-6.160156-1.554688-1.585938-3.699219-2.457032-5.917969-2.398438h-264v-112h72v56c0 4.417969 3.582031 8 8 8h64c4.417969 0 8-3.582031 8-8v-56h72v88c0 4.417969 3.582031 8 8 8s8-3.582031 8-8v-96c0-4.417969-3.582031-8-8-8h-240c-4.417969 0-8 3.582031-8 8v120h-58.082031l-3.679688-24c-1.84375-14.351562-11.296875-26.589844-24.71875-32l-56-22.320312c-11.023437-4.460938-23.664062-.386719-30 9.679687-3.6562498 6.03125-4.472656 13.359375-2.238281 20.046875s7.292969 12.050781 13.839844 14.671875l52.320312 20.960937 11.757813 78.160157c.664062 4.417969 4.78125 7.464843 9.199219 6.800781 4.417968-.664062 7.464843-4.78125 6.800781-9.199219l-11.757813-78.160156c-.851562-5.628906-4.628906-10.382813-9.921875-12.480469l-52.480469-20.960937c-2.1875-.863281-3.886718-2.648438-4.640624-4.878907-.738282-2.25-.445313-4.707031.800781-6.71875 2.367187-3.378906 6.804687-4.589843 10.558593-2.882812l56 22.320312c7.90625 3.171876 13.539063 10.296876 14.800782 18.722657l40.722656 271.199219c.597656 3.945312 4.007812 6.84375 8 6.800781h3.917969l.800781.238281h304c4.417969 0 8 3.582031 8 8s-3.582031 8-8 8h-308.960938c-11.96875.136719-22.203124-8.566406-24-20.398438l-23.199218-156.800781c-.296875-2.117187-1.425782-4.027343-3.140625-5.304687-1.714844-1.277344-3.867188-1.816406-5.980469-1.496094-2.101562.316406-3.992188 1.453125-5.25 3.164062-1.261719 1.710938-1.789062 3.855469-1.46875 5.957032l23.441406 156.558594c2.824219 19.699218 19.699219 34.324218 39.597656 34.320312h21.359376c-12.5625 16.464844-10.480469 39.800781 4.804687 53.78125 15.28125 13.976562 38.710937 13.976562 53.992187 0 15.285157-13.980469 17.367188-37.316406 4.804688-53.78125h128.800781c-12.75 16.429688-10.785156 39.886719 4.519531 53.964844 15.308594 14.078125 38.851563 14.078125 54.15625 0 15.308594-14.078125 17.273438-37.535156 4.523438-53.964844h32c13.253906 0 24-10.746094 24-24s-10.746094-24-24-24zm-128-352v48h-48v-48zm72 352h-18l6.71875-112h11.28125zm-96 0h-37.679688l-2.320312-88c0-4.417969-3.582031-8-8-8s-8 3.582031-8 8l2.320312 88h-41.839843l-10.160157-112h107.4375zm18.078125-112h50.960937l-6.800781 112h-46.238281zm-139.839844 0 10.160157 112h-32.398438v-112zm207.441407-16 5.839843-96h20.480469v96zm-14.480469-24.480469-1.519531 24.480469h-51.601563l1.761719-96h56zm-130.960938-71.519531 1.839844 72c.132813 4.417969 3.824219 7.890625 8.242187 7.761719 4.417969-.132813 7.890626-3.824219 7.757813-8.242188l-2.078125-72h48l-1.761719 96h-109.359375l-4.878906-53.121093v-42.398438zm-72 0 3.761719 42.800781v53.199219h-24c-4.417969 0-8 3.582031-8 8v53.761719l-24-157.761719zm243.761719 224v-112h8c4.417969 0 8-3.582031 8-8v-104h15.121094l-22.402344 224zm-216 96c-13.253906 0-24-10.746094-24-24s10.746094-24 24-24 24 10.746094 24 24-10.746094 24-24 24zm192 0c-13.253906 0-24-10.746094-24-24s10.746094-24 24-24 24 10.746094 24 24-10.746094 24-24 24zm0 0"/><path d="m208.21875 440c0 4.417969-3.582031 8-8 8s-8-3.582031-8-8 3.582031-8 8-8 8 3.582031 8 8zm0 0"/><path d="m400.21875 440c0 4.417969-3.582031 8-8 8s-8-3.582031-8-8 3.582031-8 8-8 8 3.582031 8 8zm0 0"/></svg>