<?xml version="1.0" encoding="iso-8859-1"?>
<!-- Generator: Adobe Illustrator 19.0.0, SVG Export Plug-In . SVG Version: 6.00 Build 0)  -->
<svg version="1.1" id="Capa_1" xmlns="http://www.w3.org/2000/svg" xmlns:xlink="http://www.w3.org/1999/xlink" x="0px" y="0px"
	 viewBox="0 0 512 512" style="enable-background:new 0 0 512 512;" xml:space="preserve">
<g>
	<g>
		<path d="M474.5,0H332c-16.542,0-30,13.458-30,30s13.458,30,30,30h77.573l-86.672,86.672C287.888,120.693,246.406,107,202.5,107
			C90.841,107,0,197.841,0,309.5S90.841,512,202.5,512S405,421.159,405,309.5c0-43.906-13.693-85.389-39.673-120.401L452,102.426
			V180c0,16.542,13.458,30,30,30s30-13.458,30-30V37.5C512,16.822,495.178,0,474.5,0z M497,180c0,8.271-6.729,15-15,15
			s-15-6.729-15-15V84.32c0-3.034-1.827-5.768-4.63-6.929c-2.803-1.161-6.028-0.519-8.174,1.626L350.07,183.142
			c-2.693,2.693-2.939,6.979-0.573,9.963C375.994,226.521,390,266.77,390,309.5C390,412.888,305.888,497,202.5,497
			S15,412.888,15,309.5S99.112,122,202.5,122c42.729,0,82.978,14.005,116.395,40.502c2.985,2.366,7.27,2.12,9.964-0.574
			L432.983,57.803c2.145-2.145,2.786-5.371,1.625-8.173c-1.16-2.803-3.896-4.63-6.929-4.63H332c-8.271,0-15-6.729-15-15
			s6.729-15,15-15h142.5c12.406,0,22.5,10.093,22.5,22.5V180z"/>
	</g>
</g>
<g>
	<g>
		<path d="M202.5,152c-36.258,0-71.657,12.627-99.676,35.556c-3.206,2.623-3.678,7.348-1.055,10.554
			c2.623,3.206,7.349,3.678,10.554,1.055C137.67,178.423,169.695,167,202.5,167c78.575,0,142.5,63.925,142.5,142.5
			S281.075,452,202.5,452S60,388.075,60,309.5c0-32.805,11.423-64.831,32.165-90.177c2.623-3.206,2.151-7.931-1.054-10.554
			c-3.205-2.623-7.931-2.15-10.554,1.054C57.627,237.843,45,273.242,45,309.5C45,396.346,115.654,467,202.5,467
			S360,396.346,360,309.5S289.346,152,202.5,152z"/>
	</g>
</g>
<g>
</g>
<g>
</g>
<g>
</g>
<g>
</g>
<g>
</g>
<g>
</g>
<g>
</g>
<g>
</g>
<g>
</g>
<g>
</g>
<g>
</g>
<g>
</g>
<g>
</g>
<g>
</g>
<g>
</g>
</svg>
